<?xml version="1.0" encoding="UTF-8" standalone="no"?>
<!-- Generator: Adobe Illustrator 19.0.0, SVG Export Plug-In . SVG Version: 6.00 Build 0)  -->

<svg
   xmlns:osb="http://www.openswatchbook.org/uri/2009/osb"
   xmlns:dc="http://purl.org/dc/elements/1.1/"
   xmlns:cc="http://creativecommons.org/ns#"
   xmlns:rdf="http://www.w3.org/1999/02/22-rdf-syntax-ns#"
   xmlns:svg="http://www.w3.org/2000/svg"
   xmlns="http://www.w3.org/2000/svg"
   xmlns:xlink="http://www.w3.org/1999/xlink"
   xmlns:sodipodi="http://sodipodi.sourceforge.net/DTD/sodipodi-0.dtd"
   xmlns:inkscape="http://www.inkscape.org/namespaces/inkscape"
   version="1.1"
   id="Capa_1"
   x="0px"
   y="0px"
   viewBox="0 0 59.982 59.982"
   style="enable-background:new 0 0 59.982 59.982;"
   xml:space="preserve"
   sodipodi:docname="icon.svg"
   inkscape:version="0.92.2 5c3e80d, 2017-08-06"><metadata
     id="metadata57"><rdf:RDF><cc:Work
         rdf:about=""><dc:format>image/svg+xml</dc:format><dc:type
           rdf:resource="http://purl.org/dc/dcmitype/StillImage" /><dc:title /></cc:Work></rdf:RDF></metadata><defs
     id="defs55"><pattern
       inkscape:collect="always"
       xlink:href="#pattern1081"
       id="pattern1805"
       patternTransform="matrix(0.83540456,0,0,1.0610057,-1.660571,8.4021636)" /><linearGradient
       id="linearGradient856"
       osb:paint="solid"><stop
         style="stop-color:#d65050;stop-opacity:1;"
         offset="0"
         id="stop854" /></linearGradient><linearGradient
       id="linearGradient1224"
       osb:paint="solid"><stop
         style="stop-color:#ffffff;stop-opacity:1;"
         offset="0"
         id="stop1222" /></linearGradient><linearGradient
       id="linearGradient1197"
       osb:paint="solid"><stop
         style="stop-color:#00ac20;stop-opacity:1;"
         offset="0"
         id="stop1195" /></linearGradient><linearGradient
       inkscape:collect="always"
       xlink:href="#linearGradient1224"
       id="linearGradient877"
       gradientUnits="userSpaceOnUse"
       gradientTransform="matrix(1.4806317,0,0,1.4806317,81.893775,59.084692)"
       x1="-46.789307"
       y1="-13.693111"
       x2="-24.617432"
       y2="-13.693111" /><pattern
       patternUnits="userSpaceOnUse"
       width="40.392463"
       height="38.59914"
       patternTransform="translate(-2.5591658,9.6786121)"
       id="pattern1081"><text
         id="text1220"
         y="38.59914"
         x="1.4232721"
         style="font-style:normal;font-weight:normal;font-size:72.87152863px;line-height:125%;font-family:sans-serif;letter-spacing:0px;word-spacing:0px;fill:#ffffff;fill-opacity:1;stroke:#d59600;stroke-width:0;stroke-linecap:butt;stroke-linejoin:miter;stroke-miterlimit:4;stroke-dasharray:none;stroke-opacity:1"
         xml:space="preserve"><tspan
           style="font-style:italic;font-variant:normal;font-weight:normal;font-stretch:normal;font-size:58.29722595px;font-family:'Times New Roman';-inkscape-font-specification:'Times New Roman, Italic';fill:#ffffff;fill-opacity:1;stroke:#d59600;stroke-width:0;stroke-miterlimit:4;stroke-dasharray:none;stroke-opacity:1"
           y="38.59914"
           x="1.4232721"
           id="tspan1218"
           sodipodi:role="line">F</tspan></text>
</pattern></defs><sodipodi:namedview
     pagecolor="#ffffff"
     bordercolor="#666666"
     borderopacity="1"
     objecttolerance="10"
     gridtolerance="10"
     guidetolerance="10"
     inkscape:pageopacity="0"
     inkscape:pageshadow="2"
     inkscape:window-width="1366"
     inkscape:window-height="683"
     id="namedview53"
     showgrid="false"
     inkscape:zoom="3.9345138"
     inkscape:cx="-28.209145"
     inkscape:cy="26.835932"
     inkscape:window-x="0"
     inkscape:window-y="24"
     inkscape:window-maximized="1"
     inkscape:current-layer="layer2" /><g
     inkscape:groupmode="layer"
     id="layer3"
     inkscape:label="backg"><path
       style="fill:#2d79ff;fill-opacity:1;stroke:#d59600;stroke-width:0;stroke-linecap:square;stroke-linejoin:bevel;stroke-miterlimit:4;stroke-dasharray:none;stroke-dashoffset:0;stroke-opacity:1;paint-order:normal"
       d="M 27.903633,59.284327 C 25.453213,58.570343 22.977096,57.592546 20.392328,56.318175 8.9335991,50.668682 1.6063946,40.997867 0.50889722,30.075025 0.39540333,28.945478 0.30254471,23.534493 0.30254471,18.050621 V 8.0799384 L 0.75526619,7.9603607 C 1.0042629,7.8945943 1.8870698,7.838705 2.7170591,7.8361659 5.6618159,7.8271163 11.200862,7.0765217 15.091445,6.1592265 c 5.454672,-1.2860651 9.221162,-2.837573 14.590453,-6.01015773 0.482411,-0.28504484 0.574191,-0.25524327 1.985903,0.64484395 5.907708,3.76666808 15.665603,6.53790058 24.470391,6.94956668 1.327982,0.062092 2.714652,0.1579144 3.081486,0.2129429 l 0.666974,0.1000515 -0.07915,11.5403512 c -0.0744,10.846327 -0.104559,11.651053 -0.501675,13.38106 -2.3504,10.239506 -9.170677,18.32477 -19.849042,23.530528 -2.7379,1.334745 -8.314497,3.293603 -9.321993,3.274485 -0.30594,-0.0058 -1.309963,-0.230161 -2.231156,-0.498574 z"
       id="path1063"
       inkscape:connector-curvature="0" /></g><g
     inkscape:groupmode="layer"
     id="layer2"
     inkscape:label="F"
     style="display:inline"><path
       id="text1581"
       style="font-style:normal;font-weight:normal;font-size:40px;line-height:125%;font-family:sans-serif;letter-spacing:0px;word-spacing:0px;display:inline;opacity:0.98999999;fill:#ffffff;fill-opacity:1;stroke:none;stroke-width:1.37212956px;stroke-linecap:butt;stroke-linejoin:miter;stroke-opacity:1"
       d="M 7.0667471,8.4021626 6.7813859,9.5196361 c 1.20486,0 2.0054609,0.090601 2.4017958,0.2718188 0.4121894,0.1812126 0.7213321,0.4630971 0.9274273,0.8456561 0.206094,0.362424 0.309142,0.805384 0.309142,1.328888 0,1.127539 -0.229876,2.687977 -0.6896249,4.681308 L 4.0466668,41.322334 c -0.5865745,2.577237 -1.0938873,4.278615 -1.5219296,5.104138 -0.3012133,0.583905 -0.7688917,1.047002 -1.4030284,1.38929 -0.4121911,0.241617 -1.2365683,0.38256 -2.473136,0.422826 l -0.3091437,1.117476 H 11.085596 l 0.285361,-1.117476 C 9.6746398,48.09764 8.6045322,47.825829 8.1606353,47.423137 7.7325921,47.020443 7.518571,46.446605 7.518571,45.701624 c 0,-0.724848 0.2536546,-2.184611 0.7609674,-4.37929 L 11.085596,28.969719 h 4.280427 c 1.759734,0 2.95667,0.34229 3.590806,1.02687 0.64999,0.664441 0.974987,1.610772 0.974987,2.838985 0,0.785254 -0.118906,1.781918 -0.356703,2.989997 h 0.951207 l 3.353003,-14.919782 h -0.903648 c -0.998766,2.436294 -1.973751,4.026932 -2.924958,4.771915 -0.935355,0.744982 -2.354237,1.117473 -4.256649,1.117473 h -4.232869 l 3.804824,-16.218472 h 6.349304 c 2.203628,0 3.622512,0.100668 4.256648,0.302022 0.903646,0.322154 1.640832,0.875859 2.211556,1.66111 0.586577,0.765117 0.879866,1.81212 0.879866,3.141006 0,0.805386 -0.0872,1.832254 -0.26158,3.080604 H 29.70546 L 32.083477,8.4021626 Z"
       inkscape:connector-curvature="0" /></g><g
     id="g22" /><g
     id="g24" /><g
     id="g26" /><g
     id="g28" /><g
     id="g30" /><g
     id="g32" /><g
     id="g34" /><g
     id="g36" /><g
     id="g38" /><g
     id="g40" /><g
     id="g42" /><g
     id="g44" /><g
     id="g46" /><g
     id="g48" /><g
     id="g50" /><g
     inkscape:groupmode="layer"
     id="layer1"
     inkscape:label="white"
     style="display:inline"><path
       inkscape:connector-curvature="0"
       id="path4-6"
       d="m 40.759343,38.706068 c -0.562974,0.233185 -0.831691,0.880552 -0.602949,1.445749 0.01657,0.0422 1.700031,4.374996 1.228109,17.910838 -0.0211,0.614054 0.458597,1.128171 1.07154,1.14816 0.01342,0.0011 0.02553,0.0011 0.03887,0.0011 0.595178,0 1.088196,-0.471922 1.109296,-1.071542 0.494132,-14.190971 -1.322491,-18.662572 -1.40022,-18.845789 -0.235404,-0.560755 -0.87944,-0.826142 -1.444637,-0.588516 z"
       style="display:inline;fill:#fbfbfb;fill-opacity:1;stroke:none;stroke-width:0.19731498;stroke-miterlimit:4;stroke-dasharray:none" /><g
       id="g1075"
       transform="matrix(1.2716119,0,0,1.2716119,-11.937996,-12.965508)"><path
         style="display:inline;fill:#fbfbfb;fill-opacity:1;stroke:none;stroke-width:0.15516919;stroke-miterlimit:4;stroke-dasharray:none"
         d="m 34.041708,25.937853 c -0.202587,0.139714 -0.405176,0.279433 -0.612131,0.413909 -0.404304,0.263715 -0.51957,0.804242 -0.255856,1.208546 0.263715,0.404304 0.803369,0.51957 1.207673,0.256729 0.220053,-0.143206 0.436613,-0.292531 0.653174,-0.441852 0.557118,-0.384221 1.0828,-0.748356 1.666988,-0.991986 1.53688,-0.641822 3.161954,-0.967536 4.828945,-0.967536 5.049869,0 9.584535,3.004774 11.551915,7.656452 1.034773,2.445908 1.601498,4.455202 1.784875,6.323034 0.04366,0.451459 0.423514,0.78765 0.867987,0.78765 0.02795,0 0.05676,-0.0017 0.08558,-0.0043 0.480275,-0.04716 0.831313,-0.474163 0.784158,-0.954438 -0.199969,-2.048589 -0.808608,-4.220304 -1.914113,-6.832998 -2.241572,-5.297866 -7.407581,-8.721787 -13.160398,-8.721787 -1.900142,0 -3.751383,0.371121 -5.502202,1.102885 -0.752721,0.312615 -1.379698,0.745736 -1.986591,1.165757 z"
         id="path6-7"
         inkscape:connector-curvature="0" /><path
         style="display:inline;fill:#fbfbfb;fill-opacity:1;stroke:none;stroke-width:0.15516919;stroke-miterlimit:4;stroke-dasharray:none"
         d="m 28.672238,37.892326 c 0.09954,-3.686763 1.124716,-6.368441 3.227447,-8.44061 0.343176,-0.338812 0.347543,-0.891563 0.0087,-1.234741 -0.338812,-0.343179 -0.891565,-0.347545 -1.235615,-0.0087 -2.444162,2.409233 -3.635244,5.471638 -3.747017,9.636057 v 8.73e-4 0 c -0.06637,2.453767 0.220927,4.662158 0.902917,6.951757 0.112653,0.379854 0.46019,0.624357 0.836552,0.624357 0.08295,0 0.166786,-0.01226 0.249743,-0.03668 0.461936,-0.137092 0.72565,-0.623484 0.587682,-1.085421 -0.626937,-2.108006 -0.891523,-4.142623 -0.830398,-6.4069 z"
         id="path8-5"
         inkscape:connector-curvature="0" /></g><path
       inkscape:connector-curvature="0"
       id="path10-3"
       d="m 55.324953,35.77797 c -0.214308,-1.338039 -0.51523,-2.565036 -0.918306,-3.75206 -1.838831,-5.419889 -7.742857,-9.985874 -13.160525,-10.179086 -2.075347,-0.07661 -4.092953,0.292036 -6.000628,1.087087 -5.272206,2.199713 -8.710021,7.307577 -8.757769,13.011731 -0.01221,1.34581 0.168784,2.68829 0.538548,3.993017 0.19321,0.685119 0.376428,1.356916 0.475252,2.034263 0.234296,1.601205 0.295369,4.41275 0.197653,9.117538 -0.01221,0.612944 0.474142,1.120399 1.087087,1.133722 0.0078,0 0.01559,0 0.02332,0 0.601838,0 1.097079,-0.483024 1.110403,-1.087084 0.09994,-4.832485 0.0322,-7.757293 -0.220969,-9.483973 -0.117701,-0.809486 -0.32979,-1.590099 -0.536326,-2.318528 -0.312024,-1.10041 -0.464149,-2.234135 -0.454156,-3.367859 0.04109,-4.814716 2.942575,-9.125311 7.393079,-10.981909 1.610086,-0.671794 3.306786,-0.98826 5.066778,-0.918306 4.496033,0.161009 9.596125,4.132931 11.137368,8.674488 0.361992,1.068211 0.632931,2.177505 0.828362,3.392289 v 0 c 0,0 0,0.0011 0,0.0011 0.391973,2.434008 0.30203,5.273314 0.178768,9.201928 l -0.07218,2.417353 c -0.01658,0.612944 0.466369,1.123731 1.079313,1.140386 0.01004,0 0.0211,0 0.03109,0 0.59962,0 1.092639,-0.477474 1.109295,-1.080424 l 0.07218,-2.407358 c 0.127702,-4.052981 0.218749,-6.981119 -0.206536,-9.626105 0,-0.0011 -0.0011,-0.0022 -0.0011,-0.0022 z"
       style="display:inline;fill:#fbfbfb;fill-opacity:1;stroke:none;stroke-width:0.19731498;stroke-miterlimit:4;stroke-dasharray:none" /><g
       id="g1079"
       transform="matrix(1.2716119,0,0,1.2716119,-11.855692,-10.597876)"><path
         style="display:inline;fill:#fbfbfb;fill-opacity:1;stroke:none;stroke-width:0.15516919;stroke-miterlimit:4;stroke-dasharray:none"
         d="m 35.572476,40.169701 c -0.201716,-0.747483 -0.293405,-1.513302 -0.272448,-2.274756 0,-8.73e-4 0,-8.73e-4 0,-0.0017 0.05501,-1.917605 0.891565,-4.528553 2.60047,-5.728367 0.394697,-0.276812 0.48988,-0.821706 0.213067,-1.216405 -0.276812,-0.394698 -0.820834,-0.491626 -1.216405,-0.213067 -2.21363,1.55347 -3.273727,4.689226 -3.342711,7.108064 0,8.74e-4 0,0.0017 0,0.0026 -0.02619,0.931732 0.08558,1.866959 0.330079,2.774241 0.01133,0.04366 0.03057,0.105654 0.05763,0.189491 0.90117,2.846718 0.952691,7.386623 0.836551,10.694406 -0.01659,0.482021 0.360643,0.887199 0.842664,0.902916 0.01055,8.73e-4 0.02008,8.73e-4 0.03057,8.73e-4 0.468049,0 0.855761,-0.371121 0.872353,-0.842663 0.174645,-5.010575 -0.1336,-8.807365 -0.917762,-11.282962 z"
         id="path12-5"
         inkscape:connector-curvature="0" /><path
         style="display:inline;fill:#fbfbfb;fill-opacity:1;stroke:none;stroke-width:0.15516919;stroke-miterlimit:4;stroke-dasharray:none"
         d="m 49.860209,37.700216 c -0.199969,-1.0339 -0.484641,-1.981351 -0.872353,-2.896492 -1.330798,-3.146236 -4.098926,-5.099645 -7.223331,-5.099645 -0.585062,0 -1.170124,0.06287 -1.736847,0.188617 -0.471542,0.103917 -0.76844,0.569344 -0.664526,1.040886 0.103917,0.47067 0.56847,0.763201 1.040886,0.664526 0.443599,-0.0978 0.902043,-0.147581 1.361361,-0.147581 2.410979,0 4.562609,1.545611 5.614847,4.033434 0.338812,0.801622 0.589427,1.634681 0.764947,2.547201 0,8.74e-4 0,0.0017 0,0.0026 0.399937,2.073912 0.830437,5.281273 0.605146,11.72394 -0.01659,0.482894 0.360642,0.887199 0.842663,0.902917 0.01055,8.72e-4 0.02008,8.72e-4 0.03057,8.72e-4 0.46805,0 0.855761,-0.371121 0.872354,-0.842663 0.179884,-5.164262 -0.01659,-8.9008 -0.636583,-12.11602 8.73e-4,-8.72e-4 8.73e-4,-0.0017 8.73e-4,-0.0026 z"
         id="path14-6"
         inkscape:connector-curvature="0" /></g><path
       inkscape:connector-curvature="0"
       id="path16-2"
       d="m 48.14354,52.885782 v -0.24873 c 0.0033,-0.612945 -0.489689,-1.112627 -1.103743,-1.117069 -0.0022,0 -0.0046,0 -0.0067,0 -0.609614,0 -1.107076,0.49191 -1.110406,1.103745 v 0.260945 c 0,0.370874 0.0055,0.697334 0.01106,1.019351 0.0046,0.302029 0.01005,0.60073 0.01005,0.946066 0,0.614054 0.497462,1.102631 1.110405,1.102631 0.612944,0 1.110406,-0.505233 1.110406,-1.119286 0,-0.342007 -0.0046,-0.651809 -0.01005,-0.966055 -0.0055,-0.309802 -0.01106,-0.625156 -0.01106,-0.981598 z"
       style="display:inline;fill:#fbfbfb;fill-opacity:1;stroke:none;stroke-width:0.19731498;stroke-miterlimit:4;stroke-dasharray:none" /><path
       inkscape:connector-curvature="0"
       id="path18-9"
       d="m 46.709211,37.725945 c -0.266497,-0.997143 -0.503014,-1.553457 -0.616274,-1.821065 -0.893877,-2.114211 -2.9559,-3.48112 -5.252217,-3.48112 -0.757297,0 -1.496829,0.148795 -2.197493,0.439721 -2.067575,0.861673 -3.442257,2.871508 -3.503328,5.117856 -0.0211,0.755078 0.106587,1.494607 0.367542,2.168622 0.265387,0.805046 1.572334,5.371033 1.190356,16.309635 -0.0211,0.612943 0.458598,1.128172 1.071541,1.148161 0.01342,0.0011 0.02553,0.0011 0.03887,0.0011 0.595179,0 1.088198,-0.471923 1.109295,-1.071542 0.38531,-11.034098 -0.898318,-15.86658 -1.326933,-17.159092 -0.165449,-0.428619 -0.243179,-0.878332 -0.230965,-1.33693 0.03774,-1.374682 0.87722,-2.60279 2.138641,-3.129121 0.428616,-0.178769 0.87944,-0.268719 1.34248,-0.268719 1.402442,0 2.66053,0.833916 3.207961,2.126427 0.09327,0.220971 0.288705,0.679567 0.514118,1.526807 0,0 0,0.0011 0,0.0011 0.445273,1.664498 1.002695,4.811388 1.130392,10.352311 0.01342,0.60517 0.508566,1.085975 1.109294,1.085975 0.0089,0 0.01777,0 0.02553,0 0.612944,-0.01441 1.098191,-0.523 1.084866,-1.134833 -0.104374,-4.558215 -0.52078,-8.318047 -1.20368,-10.8742 z"
       style="display:inline;fill:#fbfbfb;fill-opacity:1;stroke:none;stroke-width:0.19731498;stroke-miterlimit:4;stroke-dasharray:none" /></g></svg>