<?xml version="1.0" encoding="UTF-8" standalone="no"?>
<!-- Generator: Adobe Illustrator 19.0.0, SVG Export Plug-In . SVG Version: 6.00 Build 0)  -->

<svg
   xmlns:osb="http://www.openswatchbook.org/uri/2009/osb"
   xmlns:dc="http://purl.org/dc/elements/1.1/"
   xmlns:cc="http://creativecommons.org/ns#"
   xmlns:rdf="http://www.w3.org/1999/02/22-rdf-syntax-ns#"
   xmlns:svg="http://www.w3.org/2000/svg"
   xmlns="http://www.w3.org/2000/svg"
   xmlns:xlink="http://www.w3.org/1999/xlink"
   xmlns:sodipodi="http://sodipodi.sourceforge.net/DTD/sodipodi-0.dtd"
   xmlns:inkscape="http://www.inkscape.org/namespaces/inkscape"
   inkscape:version="0.92.2 5c3e80d, 2017-08-06"
   sodipodi:docname="icon.svg"
   xml:space="preserve"
   style="enable-background:new 0 0 59.982 59.982;"
   viewBox="0 0 59.982 59.982"
   y="0px"
   x="0px"
   id="Capa_1"
   version="1.1"><sodipodi:namedview
     inkscape:current-layer="layer2"
     inkscape:window-maximized="1"
     inkscape:window-y="24"
     inkscape:window-x="0"
     inkscape:cy="28.690003"
     inkscape:cx="10.666197"
     inkscape:zoom="7.8690276"
     showgrid="false"
     id="namedview53"
     inkscape:window-height="683"
     inkscape:window-width="1366"
     inkscape:pageshadow="2"
     inkscape:pageopacity="0"
     guidetolerance="10"
     gridtolerance="10"
     objecttolerance="10"
     borderopacity="1"
     bordercolor="#666666"
     pagecolor="#ffffff" /><metadata
     id="metadata57"><rdf:RDF><cc:Work
         rdf:about=""><dc:format>image/svg+xml</dc:format><dc:type
           rdf:resource="http://purl.org/dc/dcmitype/StillImage" /><dc:title /></cc:Work></rdf:RDF></metadata><defs
     id="defs55"><pattern
       inkscape:collect="always"
       xlink:href="#pattern1805"
       id="pattern1814"
       patternTransform="matrix(0.83540456,0,0,1.0610057,-7.660571,8.4021636)" /><pattern
       patternTransform="matrix(0.83540456,0,0,1.0610057,-1.660571,8.4021636)"
       id="pattern1805"
       xlink:href="#pattern1081"
       inkscape:collect="always" /><linearGradient
       osb:paint="solid"
       id="linearGradient856"><stop
         id="stop854"
         offset="0"
         style="stop-color:#d65050;stop-opacity:1;" /></linearGradient><linearGradient
       osb:paint="solid"
       id="linearGradient1224"><stop
         id="stop1222"
         offset="0"
         style="stop-color:#ffffff;stop-opacity:1;" /></linearGradient><linearGradient
       osb:paint="solid"
       id="linearGradient1197"><stop
         id="stop1195"
         offset="0"
         style="stop-color:#00ac20;stop-opacity:1;" /></linearGradient><linearGradient
       y2="-13.693111"
       x2="-24.617432"
       y1="-13.693111"
       x1="-46.789307"
       gradientTransform="matrix(1.4806317,0,0,1.4806317,81.893775,59.084692)"
       gradientUnits="userSpaceOnUse"
       id="linearGradient877"
       xlink:href="#linearGradient1224"
       inkscape:collect="always" /><pattern
       id="pattern1081"
       patternTransform="translate(-2.5591658,9.6786121)"
       height="38.59914"
       width="40.392463"
       patternUnits="userSpaceOnUse"><text
         xml:space="preserve"
         style="font-style:normal;font-weight:normal;font-size:72.87152863px;line-height:125%;font-family:sans-serif;letter-spacing:0px;word-spacing:0px;fill:#ffffff;fill-opacity:1;stroke:#d59600;stroke-width:0;stroke-linecap:butt;stroke-linejoin:miter;stroke-miterlimit:4;stroke-dasharray:none;stroke-opacity:1"
         x="1.4232721"
         y="38.59914"
         id="text1220"><tspan
           sodipodi:role="line"
           id="tspan1218"
           x="1.4232721"
           y="38.59914"
           style="font-style:italic;font-variant:normal;font-weight:normal;font-stretch:normal;font-size:58.29722595px;font-family:'Times New Roman';-inkscape-font-specification:'Times New Roman, Italic';fill:#ffffff;fill-opacity:1;stroke:#d59600;stroke-width:0;stroke-miterlimit:4;stroke-dasharray:none;stroke-opacity:1">F</tspan></text>
</pattern></defs><g
     inkscape:label="backg"
     id="layer3"
     inkscape:groupmode="layer"><path
       inkscape:connector-curvature="0"
       id="path1063"
       d="M 27.903633,59.284327 C 25.453213,58.570343 22.977096,57.592546 20.392328,56.318175 8.9335991,50.668682 1.6063946,40.997867 0.50889722,30.075025 0.39540333,28.945478 0.30254471,23.534493 0.30254471,18.050621 V 8.0799384 L 0.75526619,7.9603607 C 1.0042629,7.8945943 1.8870698,7.838705 2.7170591,7.8361659 5.6618159,7.8271163 11.200862,7.0765217 15.091445,6.1592265 c 5.454672,-1.2860651 9.221162,-2.837573 14.590453,-6.01015773 0.482411,-0.28504484 0.574191,-0.25524327 1.985903,0.64484395 5.907708,3.76666808 15.665603,6.53790058 24.470391,6.94956668 1.327982,0.062092 2.714652,0.1579144 3.081486,0.2129429 l 0.666974,0.1000515 -0.07915,11.5403512 c -0.0744,10.846327 -0.104559,11.651053 -0.501675,13.38106 -2.3504,10.239506 -9.170677,18.32477 -19.849042,23.530528 -2.7379,1.334745 -8.314497,3.293603 -9.321993,3.274485 -0.30594,-0.0058 -1.309963,-0.230161 -2.231156,-0.498574 z"
       style="fill:#2d79ff;fill-opacity:1;stroke:#d59600;stroke-width:0;stroke-linecap:square;stroke-linejoin:bevel;stroke-miterlimit:4;stroke-dasharray:none;stroke-dashoffset:0;stroke-opacity:1;paint-order:normal" /></g><g
     style="display:inline;opacity:0.98999999"
     inkscape:label="text"
     id="layer2"
     inkscape:groupmode="layer"><path
       id="text1581"
       style="font-style:normal;font-weight:normal;font-size:40px;line-height:125%;font-family:sans-serif;letter-spacing:0px;word-spacing:0px;fill:#ffffff;fill-opacity:1;stroke:none;stroke-width:1.53226018px;stroke-linecap:butt;stroke-linejoin:miter;stroke-opacity:1"
       d="m 23.123212,7.5127804 -0.328349,1.2110763 c 1.386364,0 2.30757,0.098194 2.76361,0.2945865 0.474283,0.1963908 0.829996,0.5018872 1.067138,0.9164896 0.237141,0.3927822 0.355712,0.8728462 0.355712,1.4401992 0,1.221984 -0.264505,2.913128 -0.793512,5.073426 l -6.539634,26.741866 c -0.674938,2.793113 -1.258674,4.637002 -1.751198,5.531673 -0.346589,0.632815 -0.88472,1.134701 -1.614385,1.505661 -0.474285,0.261855 -1.422849,0.414603 -2.845697,0.458243 l -0.355714,1.211078 h 14.666291 l 0.328348,-1.211078 C 26.123966,50.533247 24.892654,50.238668 24.381887,49.802246 23.889362,49.365821 23.6431,48.743917 23.6431,47.936534 c 0,-0.785563 0.291866,-2.367599 0.875602,-4.74611 l 3.228772,-13.3873 h 4.925244 c 2.024826,0 3.402072,0.370961 4.131737,1.112883 0.747906,0.720097 1.121861,1.745694 1.121861,3.076786 0,0.851028 -0.136818,1.931176 -0.410437,3.240446 h 1.094499 l 3.85811,-16.1695 h -1.039776 c -1.149222,2.640364 -2.271083,4.364238 -3.365582,5.171623 -1.076261,0.807384 -2.708887,1.211075 -4.897885,1.211075 H 28.294722 L 32.672718,9.8694687 h 7.305783 c 2.53559,0 4.168219,0.1090988 4.897884,0.3273193 1.039774,0.349138 1.888012,0.949222 2.544711,1.800248 0.674941,0.829205 1.012412,1.963907 1.012412,3.404105 0,0.872846 -0.10033,1.985727 -0.300985,3.338641 h 1.039771 L 51.908543,7.5127804 Z"
       inkscape:connector-curvature="0" /></g><g
     id="g22" /><g
     id="g24" /><g
     id="g26" /><g
     id="g28" /><g
     id="g30" /><g
     id="g32" /><g
     id="g34" /><g
     id="g36" /><g
     id="g38" /><g
     id="g40" /><g
     id="g42" /><g
     id="g44" /><g
     id="g46" /><g
     id="g48" /><g
     id="g50" /><g
     style="display:inline"
     inkscape:label="white"
     id="layer1"
     inkscape:groupmode="layer" /></svg>